<svg width="735" height="432" viewBox="0 0 735 432" fill="none" xmlns="http://www.w3.org/2000/svg">
<g clip-path="url(#clip0_295_17356)">
<path d="M185.866 56.6572H157.223V118.027H185.866V56.6572Z" fill="#EBEBEB"/>
<path d="M222.14 122.217H187.016V181.492H222.14V122.217Z" fill="#EBEBEB"/>
<path d="M226.426 55.6102H259.773V1.25673H260.923V55.6102H291.761V0H226.426V55.6102Z" fill="#EBEBEB"/>
<path d="M185.866 122.217H157.223V181.492H185.866V122.217Z" fill="#EBEBEB"/>
<path d="M291.76 122.217H260.922V181.492H291.76V122.217Z" fill="#EBEBEB"/>
<path d="M222.14 56.6572H187.016V118.027H222.14V56.6572Z" fill="#EBEBEB"/>
<path d="M291.76 56.6572H260.922V118.027H291.76V56.6572Z" fill="#EBEBEB"/>
<path d="M185.866 182.54H157.223V235.951H185.866V182.54Z" fill="#EBEBEB"/>
<path d="M185.761 55.6102V1.25673H187.016V55.6102H222.14V0H157.223V55.6102H185.761Z" fill="#EBEBEB"/>
<path d="M222.14 182.54H187.016V235.951H222.14V182.54Z" fill="#EBEBEB"/>
<path d="M291.76 182.54H260.922V235.951H291.76V182.54Z" fill="#EBEBEB"/>
<path d="M259.773 56.6572H226.426V118.027H259.773V56.6572Z" fill="#EBEBEB"/>
<path d="M259.773 182.54H226.426V235.951H259.773V182.54Z" fill="#EBEBEB"/>
<path d="M259.773 122.217H226.426V181.492H259.773V122.217Z" fill="#EBEBEB"/>
<path d="M544.846 56.6572H516.203V118.027H544.846V56.6572Z" fill="#EBEBEB"/>
<path d="M581.121 122.217H545.996V181.492H581.121V122.217Z" fill="#EBEBEB"/>
<path d="M585.406 55.6102H618.754V1.25673H620.008V55.6102H650.846V0H585.406V55.6102Z" fill="#EBEBEB"/>
<path d="M544.846 122.217H516.203V181.492H544.846V122.217Z" fill="#EBEBEB"/>
<path d="M650.846 122.217H620.008V181.492H650.846V122.217Z" fill="#EBEBEB"/>
<path d="M581.121 56.6572H545.996V118.027H581.121V56.6572Z" fill="#EBEBEB"/>
<path d="M650.846 56.6572H620.008V118.027H650.846V56.6572Z" fill="#EBEBEB"/>
<path d="M544.846 182.54H516.203V235.951H544.846V182.54Z" fill="#EBEBEB"/>
<path d="M544.846 55.6102V1.25673H545.996V55.6102H581.121V0H516.203V55.6102H544.846Z" fill="#EBEBEB"/>
<path d="M581.121 182.54H545.996V235.951H581.121V182.54Z" fill="#EBEBEB"/>
<path d="M650.846 182.54H620.008V235.951H650.846V182.54Z" fill="#EBEBEB"/>
<path d="M618.754 56.6572H585.406V118.027H618.754V56.6572Z" fill="#EBEBEB"/>
<path d="M618.754 182.54H585.406V235.951H618.754V182.54Z" fill="#EBEBEB"/>
<path d="M618.754 122.217H585.406V181.492H618.754V122.217Z" fill="#EBEBEB"/>
<path d="M134.641 114.85V59.8682L98.5753 59.8682V114.85H134.641Z" fill="#E0E0E0"/>
<path d="M133.129 112.881V61.7744L100.095 61.7744V112.881H133.129Z" fill="#FAFAFA"/>
<path d="M121.141 95.5657V78.9141H112.046V95.5657H121.141Z" fill="#E0E0E0"/>
<path d="M725.905 125.149H679.699V155.625H725.905V125.149Z" fill="#E0E0E0"/>
<path d="M724.23 126.406H681.266V154.264H724.23V126.406Z" fill="#FAFAFA"/>
<path d="M709.805 136.564H695.797V144.21H709.805V136.564Z" fill="#E0E0E0"/>
<path d="M727.723 98.3062V22.7979L678.172 22.7979V98.3062L727.723 98.3062Z" fill="#E0E0E0"/>
<path d="M725.707 95.5735V25.4062L680.442 25.4062V95.5735L725.707 95.5735Z" fill="#FAFAFA"/>
<path d="M709.199 72.0007V49.0654H696.759V72.0007H709.199Z" fill="#E0E0E0"/>
<path d="M735 431.581C735 431.686 570.459 431.895 367.552 431.895C164.541 431.79 0 431.686 0 431.581C0 431.476 164.541 431.267 367.552 431.267C570.459 431.267 735 431.371 735 431.581Z" fill="#263238"/>
<path d="M392.851 242.758C394.628 238.255 396.824 233.961 399.646 229.877C400.587 228.515 401.632 227.154 403.096 226.63C405.605 225.688 408.427 227.259 410.622 228.725C412.4 229.877 414.177 231.029 415.849 232.181C416.163 232.39 416.477 232.6 416.581 233.019C416.686 233.647 415.849 234.066 415.222 234.171C413.027 234.485 410.727 233.856 408.845 232.6C407.382 231.657 406.023 230.191 404.35 230.4C402.259 230.61 401.319 233.123 400.482 235.113C398.705 239.302 395.569 242.968 391.492 245.167" fill="#37B5A7"/>
<path d="M392.848 243.595C393.266 233.018 393.685 222.44 396.194 212.177C398.702 201.914 403.511 191.965 411.456 185.053C410.411 193.955 407.17 202.437 404.034 210.711C399.748 221.917 395.462 233.227 391.176 244.433" fill="#37B5A7"/>
<path d="M390.969 247.47C389.505 237.835 386.787 228.515 383.024 219.508C382.501 218.147 381.769 216.785 380.619 216.052C378.842 215.005 376.542 215.633 374.556 216.576C369.957 218.566 365.775 221.393 362.012 224.744C361.698 225.059 361.385 225.268 361.385 225.687C361.28 226.315 361.803 226.839 362.325 226.944C362.848 227.048 363.475 226.944 364.102 226.839C367.657 226.001 371.106 225.163 374.661 224.43C375.706 224.221 376.856 223.907 377.901 224.326C379.156 224.849 379.783 226.106 380.41 227.258C383.86 234.17 387.31 241.187 390.759 248.099" fill="#37B5A7"/>
<g opacity="0.4">
<path d="M392.851 242.758C394.628 238.255 396.824 233.961 399.646 229.877C400.587 228.515 401.632 227.154 403.096 226.63C405.605 225.688 408.427 227.259 410.622 228.725C412.4 229.877 414.177 231.029 415.849 232.181C416.163 232.39 416.477 232.6 416.581 233.019C416.686 233.647 415.849 234.066 415.222 234.171C413.027 234.485 410.727 233.856 408.845 232.6C407.382 231.657 406.023 230.191 404.35 230.4C402.259 230.61 401.319 233.123 400.482 235.113C398.705 239.302 395.569 242.968 391.492 245.167" fill="black"/>
</g>
<g opacity="0.4">
<path d="M392.848 243.595C393.266 233.018 393.685 222.44 396.194 212.177C398.702 201.914 403.511 191.965 411.456 185.053C410.411 193.955 407.17 202.437 404.034 210.711C399.748 221.917 395.462 233.227 391.176 244.433" fill="black"/>
</g>
<g opacity="0.3">
<path d="M390.969 247.47C389.505 237.835 386.787 228.515 383.024 219.508C382.501 218.147 381.769 216.785 380.619 216.052C378.842 215.005 376.542 215.633 374.556 216.576C369.957 218.566 365.775 221.393 362.012 224.744C361.698 225.059 361.385 225.268 361.385 225.687C361.28 226.315 361.803 226.839 362.325 226.944C362.848 227.048 363.475 226.944 364.102 226.839C367.657 226.001 371.106 225.163 374.661 224.43C375.706 224.221 376.856 223.907 377.901 224.326C379.156 224.849 379.783 226.106 380.41 227.258C383.86 234.17 387.31 241.187 390.759 248.099" fill="black"/>
</g>
<path d="M406.962 167.878C406.962 167.878 393.268 182.54 392.327 205.056C391.386 227.468 390.027 243.7 390.027 243.7H392.536C392.536 243.7 397.449 198.458 400.795 190.499C404.035 182.644 409.158 171.334 406.962 167.878Z" fill="#37B5A7"/>
<path d="M406.962 167.878C406.962 167.878 406.857 168.087 406.648 168.611C406.439 169.135 406.126 169.763 405.708 170.601C404.871 172.381 403.721 174.895 402.467 178.141C401.212 181.388 399.853 185.263 398.495 189.661C397.136 194.06 395.881 198.982 395.045 204.114C394.627 206.732 394.418 209.245 394.208 211.759C393.999 214.272 393.895 216.681 393.79 218.985C393.477 223.593 393.268 227.677 392.849 231.133C392.431 234.589 392.013 237.417 391.595 239.302C391.386 240.244 391.281 240.978 391.072 241.501C390.968 242.025 390.863 242.234 390.863 242.234C390.863 242.234 390.863 241.92 390.968 241.501C391.072 240.978 391.177 240.244 391.386 239.302C391.7 237.417 392.118 234.589 392.431 231.133C392.745 227.677 393.059 223.593 393.268 218.985C393.372 216.681 393.477 214.272 393.686 211.759C393.895 209.245 394.104 206.627 394.522 204.009C395.358 198.772 396.717 193.85 397.972 189.452C399.331 185.053 400.69 181.178 402.049 177.932C403.303 174.685 404.558 172.172 405.394 170.391C405.812 169.554 406.23 168.82 406.439 168.402C406.857 168.087 406.962 167.878 406.962 167.878Z" fill="#263238"/>
<path d="M416.164 188.928C416.164 188.928 399.439 204.846 397.557 219.927C395.675 235.008 394.734 243.072 394.734 243.072H396.407C396.407 243.072 400.379 221.603 405.502 214.795C410.624 208.093 417.314 190.708 416.164 188.928Z" fill="#37B5A7"/>
<path d="M415.955 189.975C415.955 189.975 415.85 190.184 415.746 190.498C415.537 190.812 415.328 191.336 415.014 191.86C414.282 193.116 413.341 194.897 412.087 196.991C409.683 201.39 406.233 207.359 403.201 214.376C400.17 221.393 398.184 227.991 397.243 232.913C396.72 235.322 396.511 237.416 396.302 238.778C396.197 239.511 396.197 240.034 396.093 240.348C396.093 240.663 395.988 240.872 395.988 240.872C395.988 240.872 395.988 240.663 395.988 240.348C395.988 239.93 395.988 239.406 396.093 238.778C396.197 237.416 396.406 235.322 396.825 232.913C397.661 227.991 399.647 221.288 402.679 214.271C405.71 207.255 409.16 201.285 411.669 196.887C412.923 194.687 413.969 193.012 414.7 191.755C415.014 191.231 415.328 190.708 415.537 190.394C415.85 190.079 415.955 189.975 415.955 189.975Z" fill="#263238"/>
<path d="M383.964 191.756C383.964 191.756 381.455 223.279 387.309 242.13H389.296C389.191 242.13 390.55 201.286 383.964 191.756Z" fill="#37B5A7"/>
<path d="M385.324 197.726C385.324 197.726 385.324 197.83 385.429 198.144C385.429 198.459 385.533 198.878 385.533 199.401C385.638 200.553 385.742 202.124 385.951 204.114C386.265 208.094 386.683 213.539 387.101 219.614C387.519 225.688 387.938 231.134 388.147 235.113C388.251 237.103 388.356 238.674 388.46 239.826C388.46 240.35 388.46 240.768 388.46 241.083C388.46 241.397 388.46 241.502 388.46 241.502C388.46 241.502 388.46 241.397 388.356 241.083C388.356 240.768 388.251 240.35 388.251 239.826C388.147 238.674 388.042 237.103 387.833 235.113C387.519 231.134 387.101 225.688 386.683 219.614C386.265 213.539 385.847 208.094 385.638 204.114C385.533 202.124 385.429 200.553 385.324 199.401C385.324 198.878 385.324 198.459 385.324 198.144C385.324 197.83 385.324 197.726 385.324 197.726Z" fill="#263238"/>
<path d="M379.993 240.244C379.993 240.244 386.056 244.643 385.743 246.633C385.429 248.622 370.794 259.514 371.735 268.102C372.676 276.689 379.68 282.554 391.597 282.135C403.514 281.716 411.668 274.176 410.518 266.635C409.473 258.99 397.556 246.947 397.451 246.318C397.033 244.643 402.782 240.349 402.782 240.349H379.993V240.244Z" fill="#455A64"/>
<path d="M401.735 251.345C401.735 251.45 397.344 251.555 391.909 251.555C386.473 251.555 382.082 251.45 382.082 251.345C382.082 251.241 386.473 251.136 391.909 251.136C397.344 251.031 401.735 251.136 401.735 251.345Z" fill="#FAFAFA"/>
<path d="M403.199 253.335C403.199 253.44 397.973 253.545 391.596 253.545C385.219 253.545 379.992 253.44 379.992 253.335C379.992 253.231 385.219 253.126 391.596 253.126C397.973 253.126 403.199 253.231 403.199 253.335Z" fill="#FAFAFA"/>
<path d="M405.291 255.639C405.291 255.744 399.123 255.849 391.597 255.849C384.07 255.849 377.902 255.744 377.902 255.639C377.902 255.534 384.07 255.43 391.597 255.43C399.123 255.43 405.291 255.534 405.291 255.639Z" fill="#FAFAFA"/>
<path d="M407.066 258.676C407.066 258.781 399.958 258.886 391.281 258.886C382.605 258.886 375.496 258.781 375.496 258.676C375.496 258.572 382.605 258.467 391.281 258.467C400.062 258.467 407.066 258.572 407.066 258.676Z" fill="#FAFAFA"/>
<path d="M725.904 315.648C726.008 298.891 726.008 282.03 726.113 265.274C726.113 261.085 726.113 256.686 723.918 253.125C721.827 249.565 717.855 247.47 713.778 246.632C709.701 245.795 705.519 246.109 701.442 246.423L680.117 313.972C673.426 315.962 667.154 318.894 662.45 323.712C660.359 325.911 658.582 328.529 658.059 331.566C657.641 334.499 658.687 337.85 661.3 339.525C661.718 339.735 662.032 339.944 662.45 340.154C661.614 346.542 649.383 431.581 649.383 431.581H653.564L664.436 370.42L686.912 360.157L711.373 373.981L721.2 431.895H725.381C725.381 431.895 713.255 341.829 713.046 339.944C714.509 339.525 715.973 339.002 717.332 338.269C725.068 334.289 726.113 325.911 725.904 315.648ZM664.854 368.325L668.199 349.579L685.03 359.005L664.854 368.325ZM668.513 347.799L669.663 341.201C679.176 341.201 688.689 341.306 698.202 341.411C700.711 341.411 703.324 341.41 705.937 341.201L707.296 348.951L687.225 358.167L668.513 347.799ZM689.107 359.319L707.505 350.941L711.06 371.572L689.107 359.319Z" fill="#455A64"/>
<path d="M669.243 337.746C662.343 337.327 665.584 327.378 665.793 316.381C665.898 309.469 670.497 302.767 675.515 297.949C677.919 295.645 681.055 294.179 684.296 293.027C692.763 290.095 702.067 289.78 710.848 291.351C710.848 291.456 723.811 341.411 669.243 337.746Z" fill="#455A64"/>
<path d="M600.354 281.507C599.623 280.355 589.273 236.265 589.273 236.265H593.037L604.013 278.574H644.783V281.716L600.354 281.507Z" fill="#455A64"/>
<path d="M684.301 281.717H366.613V288.734H388.357V431.372H396.093V288.734H609.244V431.372H616.875V288.734H684.301V281.717Z" fill="#263238"/>
<path d="M464.325 282.217H531.02V278.97H464.325V282.217Z" fill="#263238"/>
<path d="M541.398 282.136L553.942 235.218H501.778L490.488 282.136H541.398Z" fill="#263238"/>
<path d="M493.625 278.575H540.144L550.911 237.417H504.183L493.625 278.575Z" fill="#F5F5F5"/>
<path d="M505.334 245.376L502.512 257.001H533.35L536.591 245.376H505.334Z" fill="#E0E0E0"/>
<path d="M530.108 243.805C530.108 243.91 524.672 244.015 517.982 244.015C511.291 244.015 505.855 243.91 505.855 243.805C505.855 243.7 511.291 243.596 517.982 243.596C524.672 243.596 530.108 243.7 530.108 243.805Z" fill="#455A64"/>
<path d="M515.994 247.576C515.994 247.68 513.799 247.785 511.081 247.785C508.363 247.785 506.168 247.68 506.168 247.576C506.168 247.471 508.363 247.366 511.081 247.366C513.904 247.366 515.994 247.471 515.994 247.576Z" fill="#263238"/>
<path d="M523.835 247.366C523.835 247.47 522.371 247.575 520.699 247.575C518.921 247.575 517.562 247.47 517.562 247.366C517.562 247.261 519.026 247.156 520.699 247.156C522.476 247.156 523.835 247.261 523.835 247.366Z" fill="#263238"/>
<path d="M532.72 249.67C532.72 249.775 526.762 249.88 519.444 249.88C512.127 249.88 506.168 249.775 506.168 249.67C506.168 249.566 512.127 249.461 519.444 249.461C526.657 249.461 532.72 249.566 532.72 249.67Z" fill="#455A64"/>
<path d="M514.115 251.66C514.115 251.764 512.129 251.869 509.829 251.869C507.425 251.869 505.543 251.764 505.543 251.66C505.543 251.555 507.529 251.45 509.829 251.45C512.129 251.45 514.115 251.555 514.115 251.66Z" fill="#37B5A7"/>
<path d="M530.315 254.383C530.315 254.488 524.775 254.593 517.98 254.593C511.185 254.593 505.645 254.488 505.645 254.383C505.645 254.279 511.185 254.174 517.98 254.174C524.775 254.174 530.315 254.279 530.315 254.383Z" fill="#455A64"/>
<path d="M512.129 260.352C512.129 260.457 510.038 260.561 507.32 260.561C504.707 260.561 502.512 260.457 502.512 260.352C502.512 260.247 504.602 260.143 507.32 260.143C509.934 260.143 512.129 260.247 512.129 260.352Z" fill="#455A64"/>
<path d="M520.282 260.457C520.282 260.562 518.819 260.667 517.041 260.667C515.264 260.667 513.801 260.562 513.801 260.457C513.801 260.353 515.264 260.248 517.041 260.248C518.819 260.248 520.282 260.353 520.282 260.457Z" fill="#263238"/>
<path d="M524.882 260.248C524.882 260.352 524.255 260.457 523.523 260.457C522.791 260.457 522.164 260.352 522.164 260.248C522.164 260.143 522.791 260.038 523.523 260.038C524.255 260.038 524.882 260.038 524.882 260.248Z" fill="#263238"/>
<path d="M505.749 262.761C505.749 262.866 505.122 262.971 504.181 262.971C503.345 262.971 502.613 262.866 502.613 262.761C502.613 262.656 503.241 262.552 504.181 262.552C505.018 262.552 505.749 262.656 505.749 262.761Z" fill="#37B5A7"/>
<path d="M514.845 262.761C514.845 262.866 513.172 262.971 511.186 262.971C509.2 262.971 507.527 262.866 507.527 262.761C507.527 262.656 509.2 262.552 511.186 262.552C513.172 262.552 514.845 262.656 514.845 262.761Z" fill="#263238"/>
<path d="M536.483 262.551C536.483 262.656 532.092 262.761 526.761 262.761C521.43 262.761 517.039 262.656 517.039 262.551C517.039 262.447 521.43 262.342 526.761 262.342C532.197 262.237 536.483 262.342 536.483 262.551Z" fill="#455A64"/>
<path d="M505.23 265.275C505.23 265.38 504.498 265.484 503.662 265.484C502.826 265.484 502.094 265.38 502.094 265.275C502.094 265.17 502.826 265.065 503.662 265.065C504.603 265.065 505.23 265.17 505.23 265.275Z" fill="#263238"/>
<path d="M510.037 265.169C510.037 265.274 509.2 265.379 508.155 265.379C507.11 265.379 506.273 265.274 506.273 265.169C506.273 265.065 507.11 264.96 508.155 264.96C509.2 264.96 510.037 265.065 510.037 265.169Z" fill="#263238"/>
<path d="M524.357 264.96C524.357 265.065 521.639 265.17 518.294 265.17C514.948 265.17 512.23 265.065 512.23 264.96C512.23 264.856 514.948 264.751 518.294 264.751C521.534 264.751 524.357 264.856 524.357 264.96Z" fill="#455A64"/>
<path d="M516.727 269.359C516.727 269.464 513.382 269.568 509.305 269.568C505.228 269.568 501.883 269.464 501.883 269.359C501.883 269.254 505.228 269.149 509.305 269.149C513.486 269.149 516.727 269.254 516.727 269.359Z" fill="#455A64"/>
<path d="M525.405 269.149C525.405 269.254 523.942 269.358 522.06 269.358C520.178 269.358 518.715 269.254 518.715 269.149C518.715 269.044 520.178 268.939 522.06 268.939C523.942 268.939 525.405 269.044 525.405 269.149Z" fill="#37B5A7"/>
<path d="M538.261 269.149C538.261 269.254 535.752 269.358 532.72 269.358C529.689 269.358 527.18 269.254 527.18 269.149C527.18 269.044 529.689 268.939 532.72 268.939C535.752 268.939 538.261 269.044 538.261 269.149Z" fill="#263238"/>
<path d="M535.23 243.596C535.23 243.701 534.707 243.806 534.08 243.806C533.452 243.806 532.93 243.701 532.93 243.596C532.93 243.491 533.452 243.387 534.08 243.387C534.707 243.387 535.23 243.491 535.23 243.596Z" fill="#263238"/>
<path d="M511.815 242.025C511.815 242.13 510.665 242.234 509.306 242.234C507.947 242.234 506.797 242.13 506.797 242.025C506.797 241.92 507.947 241.815 509.306 241.815C510.665 241.815 511.815 241.92 511.815 242.025Z" fill="#37B5A7"/>
<path d="M550.18 240.349C534.395 240.349 519.133 240.349 503.348 240.349L504.184 237.417H550.912L550.18 240.349Z" fill="#EBEBEB"/>
<path d="M506.69 238.883C506.69 239.197 506.481 239.407 506.167 239.407C505.854 239.407 505.645 239.197 505.645 238.883C505.645 238.569 505.854 238.359 506.167 238.359C506.481 238.359 506.69 238.569 506.69 238.883Z" fill="#FAFAFA"/>
<path d="M508.467 238.883C508.467 239.197 508.258 239.407 507.945 239.407C507.631 239.407 507.422 239.197 507.422 238.883C507.422 238.569 507.631 238.359 507.945 238.359C508.154 238.359 508.467 238.569 508.467 238.883Z" fill="#FAFAFA"/>
<path d="M510.143 238.883C510.143 239.197 509.934 239.407 509.62 239.407C509.307 239.407 509.098 239.197 509.098 238.883C509.098 238.569 509.307 238.359 509.62 238.359C509.934 238.359 510.143 238.569 510.143 238.883Z" fill="#FAFAFA"/>
<path d="M430.38 343.715C430.276 345.495 418.672 431.162 418.672 431.162L422.644 431.267L437.384 344.553L430.38 343.715Z" fill="#455A64"/>
<path d="M478.885 343.506C479.094 345.286 491.429 431.477 491.429 431.477H487.457L472.09 344.867L478.885 343.506Z" fill="#455A64"/>
<path d="M462.994 267.159C462.994 259.828 457.035 253.859 449.718 253.859C441.459 253.754 432.051 253.859 429.856 254.382C425.988 255.22 422.224 257.21 420.134 260.561C418.043 264.017 418.043 268.206 418.043 272.186C418.148 288.942 418.148 305.803 418.252 322.56L463.203 322.35L462.994 267.159Z" fill="#455A64"/>
<path d="M418.149 320.256C417.94 330.205 418.985 338.269 426.303 342.144C431.843 345.077 438.429 345.077 444.701 345.077C453.796 345.077 462.891 344.972 471.985 344.972C474.703 344.972 477.735 344.867 479.93 343.401C482.439 341.725 483.484 338.583 482.962 335.756C482.544 332.928 480.871 330.415 478.78 328.32C470.835 320.151 458.396 317.743 446.792 315.753" fill="#455A64"/>
<path d="M479.303 338.897C485.888 338.479 482.752 329.053 482.648 318.476C482.543 311.878 478.153 305.385 473.344 300.881C471.044 298.682 468.013 297.216 464.981 296.169C456.827 293.446 448.046 293.132 439.579 294.493C439.579 294.493 427.139 342.353 479.303 338.897Z" fill="#455A64"/>
<path d="M434.036 351.256L480.45 372.62L479.823 374.191L433.199 352.932L434.036 351.256Z" fill="#455A64"/>
<path d="M431.215 374.61L475.329 349.999L476.166 351.465L431.947 376.286L431.215 374.61Z" fill="#455A64"/>
<path d="M102.656 280.04H179.282L190.572 241.605L136.735 242.024L124.191 277.213L102.656 277.527V280.04Z" fill="#304147"/>
<path d="M159.317 264.645C160.991 264.645 162.348 263.286 162.348 261.608C162.348 259.931 160.991 258.571 159.317 258.571C157.642 258.571 156.285 259.931 156.285 261.608C156.285 263.286 157.642 264.645 159.317 264.645Z" fill="white"/>
<path d="M102.131 339.002C102.34 340.887 115.198 430.848 115.198 430.848H111.017L94.918 340.363L102.131 339.002Z" fill="#455A64"/>
<path d="M64.7083 341.202C74.2211 341.202 83.734 341.097 93.2469 340.992C96.1739 340.992 99.2055 340.887 101.61 339.316C104.223 337.536 104.537 334.29 104.851 331.357C105.164 328.32 105.06 326.644 104.955 323.503C104.85 320.989 105.373 316.276 104.955 311.878L105.06 256.896C105.06 251.136 101.923 246.214 91.7834 246.214C76.3119 246.214 52.1638 245.795 49.1322 246.423C45.0553 247.261 41.0829 249.356 38.9922 252.916C36.7969 256.477 36.7969 260.876 36.7969 265.065C36.9014 281.821 36.9014 298.682 37.0059 315.439C36.9014 325.807 37.8422 334.185 45.4734 338.164C46.8324 338.898 48.2959 339.421 49.7595 339.84C49.5504 341.725 37.4241 431.791 37.4241 431.791H41.6056L51.4321 373.876L75.8937 360.052L101.296 371.572L101.923 369.897L77.8799 358.9L97.4284 347.904L96.5921 346.333L75.7892 357.958L55.7181 348.742L57.0771 340.992C59.5859 341.306 62.1994 341.306 64.7083 341.202ZM73.803 359.215L51.8502 371.468L55.4045 350.836L73.803 359.215Z" fill="#455A64"/>
<path d="M110.183 315.439C110.287 324.864 109.451 332.614 103.597 337.013C102.97 337.431 102.343 337.85 101.715 338.165C100.356 338.898 98.8928 339.421 97.4293 339.84C97.4293 340.469 96.593 340.783 95.4431 340.992C94.7113 340.992 93.9796 340.992 93.2478 340.992C92.307 340.992 91.3661 340.992 90.5298 340.992H90.4253C90.3208 340.992 90.2162 340.992 90.2162 340.992C90.0072 340.992 89.7981 340.992 89.6936 340.992C84.3622 340.992 79.0308 341.097 73.6994 341.097C68.368 341.097 63.0366 341.097 57.7052 340.992C57.4961 340.992 57.2871 340.992 57.1825 340.992C57.1825 340.992 57.078 340.992 56.8689 340.992C55.9281 340.992 54.9873 340.992 54.0464 340.992C53.3147 340.992 52.5829 340.992 51.8511 340.992C50.7012 340.887 49.8649 340.469 49.8649 339.945V339.84C48.4014 339.421 46.9379 338.898 45.5789 338.165C44.8472 337.746 44.2199 337.431 43.6973 336.908C37.8432 332.509 37.0069 324.759 37.1114 315.334C37.0069 298.578 37.0069 281.717 36.9023 264.96C36.9023 260.771 36.9023 256.373 39.0976 252.812C41.2929 249.251 45.1608 247.157 49.2377 246.319C51.2239 245.9 62.0958 246.005 73.6994 246.109C85.303 246.005 96.2794 246.005 98.1611 246.319C102.238 247.157 106.21 249.251 108.301 252.812C110.496 256.373 110.496 260.771 110.496 264.96C110.287 281.926 110.287 298.682 110.183 315.439Z" fill="#455A64"/>
<path d="M3.13672 280.041V287.058H21.7443V431.477H29.3755V296.902H256.221V431.477H263.852V287.058H279.115V280.041H3.13672ZM29.4801 295.017V287.162H256.325V295.017H29.4801Z" fill="#263238"/>
<path d="M212.094 243.473V249.128H254.327V243.473H212.094Z" fill="#455A64"/>
<path d="M217.857 243.701C217.961 243.701 218.17 244.853 218.17 246.319C218.17 247.786 218.066 248.938 217.857 248.938C217.752 248.938 217.543 247.786 217.543 246.319C217.648 244.853 217.752 243.701 217.857 243.701Z" fill="#FAFAFA"/>
<path d="M216.915 243.596C217.02 243.596 217.229 244.748 217.229 246.214C217.229 247.68 217.124 248.832 216.915 248.832C216.811 248.832 216.602 247.68 216.602 246.214C216.706 244.748 216.811 243.596 216.915 243.596Z" fill="#FAFAFA"/>
<path d="M251.099 243.701C251.203 243.701 251.412 244.853 251.412 246.319C251.412 247.786 251.308 248.938 251.099 248.938C250.994 248.938 250.785 247.786 250.785 246.319C250.89 244.853 250.994 243.701 251.099 243.701Z" fill="#FAFAFA"/>
<path d="M250.263 243.596C250.367 243.596 250.576 244.748 250.576 246.214C250.576 247.68 250.472 248.832 250.263 248.832C250.158 248.832 249.949 247.68 249.949 246.214C249.949 244.748 250.054 243.596 250.263 243.596Z" fill="#FAFAFA"/>
<path d="M244.722 246.424C244.722 246.528 239.913 246.738 233.955 246.738C227.996 246.738 223.188 246.633 223.188 246.424C223.188 246.319 227.996 246.109 233.955 246.109C239.809 246.214 244.722 246.319 244.722 246.424Z" fill="#FAFAFA"/>
<path d="M211.789 268.758V280.068H254.022V268.758H211.789Z" fill="#37B5A7"/>
<path d="M254.652 276.899C254.652 276.899 254.548 277.004 254.443 277.004C254.338 277.108 254.025 277.213 253.711 277.318C253.084 277.527 252.143 277.946 250.889 278.156C249.634 278.365 247.962 278.365 246.185 277.527C245.348 277.108 244.616 276.375 243.989 275.538C243.362 274.7 243.048 273.443 243.258 272.291C243.362 271.663 243.571 271.139 243.989 270.615C244.407 270.092 245.035 269.778 245.766 269.778C246.498 269.778 247.125 270.196 247.544 270.72C247.962 271.244 248.275 271.977 248.38 272.605C248.589 274.071 247.962 275.538 246.916 276.585C245.871 277.737 244.407 278.365 242.839 278.575C241.271 278.784 239.703 278.47 238.135 277.946C236.567 277.423 235.104 276.585 234.058 275.223C233.536 274.49 233.117 273.652 233.117 272.815C233.013 271.872 233.326 270.93 234.058 270.301C234.372 269.987 234.895 269.778 235.417 269.673C235.94 269.673 236.358 269.778 236.776 270.092C237.613 270.615 238.135 271.453 238.344 272.396C238.762 274.281 238.031 276.166 236.672 277.423C235.313 278.679 233.536 279.203 231.863 279.412C230.19 279.622 228.518 279.412 226.95 278.889C225.382 278.365 224.023 277.318 223.186 275.956C222.35 274.595 222.141 272.919 222.768 271.453C223.082 270.72 223.709 270.092 224.441 269.987C225.173 269.882 226.009 270.092 226.532 270.511C227.681 271.453 227.891 273.129 227.577 274.281C227.159 275.538 226.323 276.48 225.486 277.318C223.709 278.889 221.514 279.517 219.737 279.622C217.855 279.727 216.287 279.203 215.137 278.575C213.987 277.946 213.255 277.318 212.733 276.794C212.524 276.585 212.315 276.375 212.21 276.166C212.105 276.061 212.105 275.956 212.105 275.956C212.21 275.852 212.942 277.213 215.242 278.365C216.391 278.889 217.96 279.413 219.737 279.308C221.514 279.203 223.605 278.575 225.277 277.108C226.113 276.375 226.95 275.433 227.263 274.281C227.577 273.129 227.368 271.663 226.427 270.93C225.904 270.511 225.277 270.406 224.65 270.511C224.023 270.615 223.5 271.139 223.291 271.663C222.768 272.919 222.977 274.49 223.709 275.747C224.441 277.004 225.695 277.946 227.159 278.47C228.622 278.994 230.295 279.098 231.863 278.889C233.431 278.679 235.104 278.156 236.358 277.108C237.613 276.061 238.24 274.281 237.822 272.605C237.613 271.767 237.194 271.034 236.463 270.615C235.835 270.196 234.895 270.196 234.372 270.72C233.849 271.244 233.536 272.082 233.64 272.815C233.64 273.652 234.058 274.386 234.476 275.014C235.417 276.271 236.881 277.108 238.344 277.632C239.808 278.156 241.376 278.365 242.839 278.261C244.303 278.051 245.662 277.527 246.603 276.48C247.544 275.433 248.066 274.071 247.962 272.815C247.857 271.558 246.916 270.406 245.766 270.301C245.244 270.301 244.616 270.511 244.303 270.93C243.885 271.349 243.676 271.872 243.571 272.396C243.362 273.443 243.676 274.595 244.303 275.433C244.826 276.271 245.557 276.899 246.394 277.318C247.962 278.156 249.634 278.156 250.889 278.051C252.143 277.842 253.084 277.527 253.711 277.318C254.234 277.004 254.548 276.899 254.652 276.899Z" fill="#FAFAFA"/>
<path d="M215.555 249.077V268.766H254.024V249.077H215.555Z" fill="#263238"/>
<path d="M221.931 249.774C222.035 249.774 222.244 254.068 222.244 259.305C222.244 264.541 222.14 268.835 221.931 268.835C221.826 268.835 221.617 264.541 221.617 259.305C221.722 253.964 221.826 249.774 221.931 249.774Z" fill="#E0E0E0"/>
<path d="M224.857 249.565C224.961 249.565 225.17 253.755 225.17 258.991C225.17 264.123 225.066 268.416 224.857 268.416C224.752 268.416 224.543 264.227 224.543 258.991C224.648 253.755 224.752 249.565 224.857 249.565Z" fill="#E0E0E0"/>
<path d="M249.739 248.832C249.844 248.832 250.053 253.231 250.053 258.676C250.053 264.122 249.948 268.521 249.739 268.521C249.635 268.521 249.426 264.122 249.426 258.676C249.426 253.335 249.53 248.832 249.739 248.832Z" fill="#E0E0E0"/>
<path d="M246.286 249.146C246.391 249.146 246.6 253.44 246.6 258.781C246.6 264.122 246.495 268.416 246.286 268.416C246.182 268.416 245.973 264.122 245.973 258.781C245.973 253.44 246.077 249.146 246.286 249.146Z" fill="#E0E0E0"/>
<path d="M409.473 29.9521H352.918V158.453H409.473V29.9521Z" fill="#263238"/>
<path d="M406.859 32.7793H355.531V155.52H406.859V32.7793Z" fill="#FAFAFA"/>
<path d="M399.855 41.2627H362.117V147.666H399.855V41.2627Z" fill="#455A64"/>
<path d="M479.305 29.9521H422.75V158.453H479.305V29.9521Z" fill="#263238"/>
<path d="M476.691 32.7793H425.363V155.52H476.691V32.7793Z" fill="#FAFAFA"/>
<path d="M469.789 41.2627H432.051V147.666H469.789V41.2627Z" fill="#263238"/>
<path d="M75.9999 37.8066H19.4453V166.307H75.9999V37.8066Z" fill="#263238"/>
<path d="M73.3863 40.6348H22.0586V163.375H73.3863V40.6348Z" fill="#FAFAFA"/>
<path d="M66.3824 49.0127H28.6445V155.416H66.3824V49.0127Z" fill="#37B5A7"/>
</g>
<defs>
<clipPath id="clip0_295_17356">
<rect width="735" height="432" fill="white"/>
</clipPath>
</defs>
</svg>
