<?xml version="1.0" encoding="utf-8"?><!-- Uploaded to: SVG Repo, www.svgrepo.com, Generator: SVG Repo Mixer Tools -->
<svg version="1.1" id="Uploaded to svgrepo.com" xmlns="http://www.w3.org/2000/svg" xmlns:xlink="http://www.w3.org/1999/xlink" 
	 width="800px" height="800px" viewBox="0 0 32 32" xml:space="preserve">
<style type="text/css">
	.bentblocks_een{fill:#0B1719;}
</style>
<path class="bentblocks_een" d="M28,10h-1.6c-2.1-3.6-6-6-10.4-6S7.7,6.4,5.6,10H4v5h0.1C4,15.3,4,15.7,4,16c0,6.6,5.4,12,12,12
	s12-5.4,12-12c0-0.3,0-0.7-0.1-1H28V10z M6,13v-1h20v1H6z M16,6c3.3,0,6.1,1.6,8,4H8C9.9,7.6,12.7,6,16,6z M26,16
	c0,5.5-4.5,10-10,10S6,21.5,6,16c0-0.3,0-0.7,0.1-1H26V16z M18,18h2v2h-2V18z M12,18h2v2h-2V18z"/>
</svg>